HIERARCHY
ROOT root
{
	OFFSET 0.000000 0.000000 0.000000
	CHANNELS 6 Xposition Yposition Zposition Zrotation Yrotation Xrotation
	JOINT lhip
	{
		OFFSET 0.058581 -0.082280 -0.017664
		CHANNELS 3 Zrotation Yrotation Xrotation
		JOINT lknee
		{
			OFFSET 0.043451 -0.386469 0.008037
			CHANNELS 3 Zrotation Yrotation Xrotation
			JOINT lankle
			{
				OFFSET -0.014790 -0.426874 -0.037428
				CHANNELS 3 Zrotation Yrotation Xrotation
				JOINT ltoe
				{
					OFFSET 0.041054 -0.060286 0.122042
					CHANNELS 3 Zrotation Yrotation Xrotation
					End Site
					{
						OFFSET 0.000000 0.000000 0.000000
					}
				}
			}
		}
	}
	JOINT rhip
	{
		OFFSET -0.060310 -0.090513 -0.013543
		CHANNELS 3 Zrotation Yrotation Xrotation
		JOINT rknee
		{
			OFFSET -0.043257 -0.383688 -0.004843
			CHANNELS 3 Zrotation Yrotation Xrotation
			JOINT rankle
			{
				OFFSET 0.019056 -0.420046 -0.034562
				CHANNELS 3 Zrotation Yrotation Xrotation
				JOINT rtoe
				{
					OFFSET -0.034840 -0.062106 0.130323
					CHANNELS 3 Zrotation Yrotation Xrotation
					End Site
					{
						OFFSET 0.000000 0.000000 0.000000
					}
				}
			}
		}
	}
	JOINT lowerback
	{
		OFFSET 0.004439 0.124404 -0.038385
		CHANNELS 3 Zrotation Yrotation Xrotation
		JOINT upperback
		{
			OFFSET 0.004488 0.137956 0.026820
			CHANNELS 3 Zrotation Yrotation Xrotation
			JOINT chest
			{
				OFFSET -0.002265 0.056032 0.002855
				CHANNELS 3 Zrotation Yrotation Xrotation
				JOINT lowerneck
				{
					OFFSET -0.013390 0.211636 -0.033468
					CHANNELS 3 Zrotation Yrotation Xrotation
					JOINT upperneck
					{
						OFFSET 0.010113 0.088937 0.050410
						CHANNELS 3 Zrotation Yrotation Xrotation
						End Site
						{
							OFFSET 0.000000 0.000000 0.000000
						}
					}
				}
				JOINT lclavicle
				{
					OFFSET 0.071702 0.114000 -0.018898
					CHANNELS 3 Zrotation Yrotation Xrotation
					JOINT lshoulder
					{
						OFFSET 0.122921 0.045205 -0.019046
						CHANNELS 3 Zrotation Yrotation Xrotation
						JOINT lelbow
						{
							OFFSET 0.255332 -0.015649 -0.022946
							CHANNELS 3 Zrotation Yrotation Xrotation
							JOINT lwrist
							{
								OFFSET 0.265709 0.012698 -0.007375
								CHANNELS 3 Zrotation Yrotation Xrotation
								End Site
								{
									OFFSET 0.000000 0.000000 0.000000
								}
							}
						}
					}
				}
				JOINT rclavicle
				{
					OFFSET -0.082954 0.112472 -0.023707
					CHANNELS 3 Zrotation Yrotation Xrotation
					JOINT rshoulder
					{
						OFFSET -0.113228 0.046853 -0.008472
						CHANNELS 3 Zrotation Yrotation Xrotation
						JOINT relbow
						{
							OFFSET -0.260127 -0.014369 -0.031269
							CHANNELS 3 Zrotation Yrotation Xrotation
							JOINT rwrist
							{
								OFFSET -0.269108 0.006794 -0.006027
								CHANNELS 3 Zrotation Yrotation Xrotation
								End Site
								{
									OFFSET 0.000000 0.000000 0.000000
								}
							}
						}
					}
				}
			}
		}
	}
}
MOTION
Frames: 8
Frame Time: 0.033333
-0.053979 0.266242 0.951522 91.352817 -2.087811 86.816300 1.847678 -1.473434 -11.965640 -7.521030 -2.168193 34.375212 -0.001189 13.237689 -19.311566 0.000000 -0.000000 0.000000 -5.177279 -2.805114 -15.564193 -2.126239 -3.201510 40.565516 4.398434 -9.517604 -20.878458 0.000000 -0.000000 0.000000 1.225366 -2.395426 16.454829 -4.444655 1.844881 -2.870245 -1.126531 3.756733 3.477506 -4.456794 -5.476438 7.315241 4.459370 0.684114 9.304395 -14.718700 11.119370 -6.249439 -27.776593 -0.003271 -9.661208 127.318362 -48.748903 -100.227193 11.325753 -12.519828 -2.977859 12.747599 6.865852 4.000572 38.151357 -2.196285 22.863884 76.004676 55.479526 110.395090 3.136635 17.516096 8.492352 
-0.054104 0.265618 0.951267 91.416727 -2.055377 86.787587 1.925422 -1.453494 -12.045075 -7.507707 -2.141456 34.533703 0.038567 13.255345 -19.350648 0.000000 -0.000000 0.000000 -5.097517 -2.794765 -15.585500 -2.116268 -3.228014 40.652233 4.350678 -9.593933 -20.923856 0.000000 -0.000000 0.000000 1.048162 -2.367902 16.590096 -4.413143 1.812515 -2.972018 -1.079869 3.769511 3.543205 -4.478426 -5.484645 7.287347 4.482746 0.687651 9.225263 -14.670948 11.117337 -6.315565 -27.686460 -0.132841 -9.601357 127.230646 -48.879715 -100.342518 11.529292 -12.515145 -3.108494 12.751746 6.865518 4.031855 38.181052 -2.175915 22.899337 75.866180 55.568850 110.201787 2.790698 17.451062 8.743350 
-0.054138 0.264693 0.950840 91.466210 -1.932765 86.870992 2.124658 -1.400878 -12.262479 -7.549674 -2.218168 34.758663 -0.032395 13.273957 -19.422590 0.000000 -0.000000 0.000000 -4.908037 -2.759573 -15.713165 -2.084995 -3.271595 40.754068 4.262844 -9.671874 -21.001204 0.000000 -0.000000 0.000000 0.910000 -2.356306 16.562549 -4.381358 1.773204 -2.905631 -1.052356 3.728955 3.445255 -4.486608 -5.499838 7.368770 4.552775 0.700960 9.213557 -14.548096 11.079326 -6.174980 -27.609607 0.044755 -9.684765 127.205094 -48.902901 -100.319810 11.757036 -12.473314 -2.985313 12.748159 6.946155 4.022174 38.171614 -2.166975 22.822519 75.790278 55.493684 110.243661 3.088041 17.411635 8.625537 
-0.054383 0.263807 0.950650 91.551159 -1.799746 86.871440 2.275441 -1.364882 -12.378268 -7.552331 -2.367473 34.956842 -0.010424 13.270167 -19.452151 0.000000 -0.000000 0.000000 -4.723316 -2.794507 -15.711504 -2.038861 -3.312974 40.765661 4.192187 -9.755210 -21.044409 0.000000 -0.000000 0.000000 0.724757 -2.350094 16.699921 -4.348032 1.708815 -3.027947 -0.970975 3.742184 3.488104 -4.455117 -5.332823 7.470177 4.553237 0.722993 9.182542 -14.489134 11.060145 -6.069460 -27.531785 0.127549 -9.703670 127.314114 -48.934469 -100.335547 11.928995 -12.346847 -3.274288 12.738636 6.939724 4.147692 38.100024 -2.032165 22.742311 75.761451 55.405337 110.382821 2.740543 17.427993 8.472513 
-0.054342 0.262722 0.950529 91.548062 -1.657957 86.819149 2.456750 -1.249561 -12.409430 -7.496307 -2.431930 35.149926 0.008800 13.184738 -19.504646 0.000000 -0.000000 0.000000 -4.517729 -2.779396 -15.660360 -2.029238 -3.376096 40.787029 4.177502 -9.757046 -21.080189 0.000000 -0.000000 0.000000 0.517815 -2.312168 16.829951 -4.333596 1.694165 -2.973868 -0.929175 3.756454 3.396498 -4.464000 -5.311475 7.610757 4.605323 0.590523 9.120926 -14.490289 11.068059 -6.022281 -27.318472 0.148985 -9.726666 127.271690 -49.003149 -100.377303 11.883508 -12.445534 -3.315220 12.761548 7.002990 4.145060 38.030356 -2.030104 22.799150 75.753211 55.378165 110.425939 2.460179 17.329376 8.538075 
-0.054454 0.261840 0.950205 91.635657 -1.533422 86.891156 2.648397 -1.391117 -12.621041 -7.442008 -2.346991 35.385663 -0.038237 13.158870 -19.610021 0.000000 -0.000000 0.000000 -4.406184 -2.818049 -15.766722 -1.972526 -3.572899 40.864781 4.135257 -9.730489 -21.083165 0.000000 -0.000000 0.000000 0.378658 -2.272413 16.722849 -4.351757 1.639658 -2.895962 -0.953660 3.799162 3.360321 -4.534799 -5.347251 7.822403 4.603742 0.566966 9.144761 -14.398952 11.042790 -6.088201 -27.291555 0.128615 -9.691114 127.226429 -49.115765 -100.442193 11.415863 -12.354574 -3.182406 12.787165 7.007275 4.292541 38.081562 -2.032848 22.658952 75.637425 55.398391 110.342762 3.071478 17.427919 8.704999 
-0.054335 0.260963 0.949893 91.651284 -1.408268 86.832224 2.845689 -1.398683 -12.620496 -7.502594 -2.424470 35.527014 -0.117117 13.218279 -19.727609 0.000000 -0.000000 0.000000 -4.258347 -2.896356 -15.684086 -1.936124 -3.645186 40.864150 4.079928 -9.713732 -21.095312 0.000000 -0.000000 0.000000 0.223667 -2.230121 16.821451 -4.411493 1.579611 -2.805134 -0.976851 3.844127 3.289041 -4.536139 -5.155415 7.937377 4.611280 0.526565 9.103381 -14.329364 11.021697 -6.162765 -27.122841 0.328223 -9.652639 127.059410 -49.270452 -100.418214 11.590802 -12.415171 -3.313447 12.796781 7.051632 4.287107 38.118051 -2.037587 22.683832 75.550543 55.423453 110.293176 2.819684 17.468061 8.793224 
-0.054354 0.260188 0.949539 91.743511 -1.330218 86.785108 3.016589 -1.316400 -12.688052 -7.611510 -2.526465 35.746472 -0.066974 13.180828 -19.778992 0.000000 -0.000000 0.000000 -4.212073 -3.027839 -15.676921 -1.824095 -3.748100 40.981358 4.052441 -9.668518 -21.183443 0.000000 -0.000000 0.000000 0.065864 -2.189854 16.909526 -4.477374 1.559081 -2.760537 -1.013025 3.813180 3.237920 -4.724762 -5.034348 8.104025 4.553860 0.622031 9.157337 -14.293662 11.053134 -6.152153 -26.929308 0.456502 -9.748785 126.817412 -49.514977 -100.228390 11.589811 -12.245841 -3.354246 12.810617 7.142850 4.304342 38.200623 -2.059659 22.680301 75.430657 55.398657 110.133237 2.990643 17.447910 8.788461 
